PathFileType	4	(X/Y/Z)	/Users/itak/Documents/Research/Walk-IL/dataset/trc/00039_00004.trc
DataRate	CameraRate	NumFrames	NumMarkers	Units	OrigDataRate	OrigDataStartFrame	OrigNumFrames
100.000000	100.000000	4	53	mm	100.000000	351	468
Frame#	Time	RPSI			LPSI			L3			STRN			T10			C7			CLAV			RBAK			LBAK			LSHO			LUPA			LAEL			LAOL			LWTS			LWPS			LFRA			LIFD			LHPS			LHTS			RSHO			RUPA			RAEL			RAOL			RWTS			RWPS			RFRA			RIFD			RHTS			RHPS			RBHD			LFHD			RFHD			LBHD			LHIP			RHIP			RASI			LASI			LKNE			LTHI			LANK			LTIP			LTOE			LMT1			LMT5			LHEE			RKNE			RTHI			RANK			RTIP			RTOE			RMT1			RMT5			RHEE			
		X1	Y1	Z1	X2	Y2	Z2	X3	Y3	Z3	X4	Y4	Z4	X5	Y5	Z5	X6	Y6	Z6	X7	Y7	Z7	X8	Y8	Z8	X9	Y9	Z9	X10	Y10	Z10	X11	Y11	Z11	X12	Y12	Z12	X13	Y13	Z13	X14	Y14	Z14	X15	Y15	Z15	X16	Y16	Z16	X17	Y17	Z17	X18	Y18	Z18	X19	Y19	Z19	X20	Y20	Z20	X21	Y21	Z21	X22	Y22	Z22	X23	Y23	Z23	X24	Y24	Z24	X25	Y25	Z25	X26	Y26	Z26	X27	Y27	Z27	X28	Y28	Z28	X29	Y29	Z29	X30	Y30	Z30	X31	Y31	Z31	X32	Y32	Z32	X33	Y33	Z33	X34	Y34	Z34	X35	Y35	Z35	X36	Y36	Z36	X37	Y37	Z37	X38	Y38	Z38	X39	Y39	Z39	X40	Y40	Z40	X41	Y41	Z41	X42	Y42	Z42	X43	Y43	Z43	X44	Y44	Z44	X45	Y45	Z45	X46	Y46	Z46	X47	Y47	Z47	X48	Y48	Z48	X49	Y49	Z49	X50	Y50	Z50	X51	Y51	Z51	X52	Y52	Z52	X53	Y53	Z53	

352	3.51	-87.0611572265625	1060.3515625	744.1520385742188	62.7390251159668	1053.22119140625	679.285888671875	-5.906566619873047	1113.63720703125	699.5143432617188	60.09088516235352	1316.901977539062	910.0918579101562	-6.86917781829834	1256.168090820312	669.8056640625	21.51824760437012	1525.749755859375	702.4431762695312	52.5470085144043	1440.879516601562	862.6343994140625	-70.91911315917969	1387.485229492188	678.23583984375	111.0428237915039	1482.847778320312	663.089599609375	206.4056091308594	1492.667236328125	744.5516967773438	274.4208068847656	1366.948974609375	699.45556640625	306.226806640625	1151.579956054688	695.8172607421875	204.6654968261719	1134.611206054688	668.7011108398438	287.9232788085938	902.802001953125	806.2350463867188	307.4570617675781	885.2151489257812	721.3991088867188	319.9873962402344	1036.60791015625	710.15625	280.4137573242188	719.58203125	844.283203125	318.1904296875	797.2722778320312	757.80517578125	307.4396667480469	810.2484741210938	827.2247314453125	-131.4637908935547	1516.823486328125	818.8501586914062	-204.7917938232422	1449.382202148438	821.9371337890625	-248.4941101074219	1184.132690429688	794.1859130859375	-154.845947265625	1152.325561523438	776.0803833007812	-198.0136108398438	929.4392700195312	925.8197631835938	-275.031005859375	912.66650390625	876.569091796875	-263.3140869140625	1108.145263671875	811.8089599609375	-181.2196502685547	744.637451171875	948.7539672851562	-204.7005767822266	822.9137573242188	967.5025634765625	-265.833740234375	813.9457397460938	923.2554931640625	104.0207290649414	1712.015869140625	747.3709106445312	-20.78141212463379	1727.566284179688	925.6168823242188	77.01341247558594	1732.805419921875	925.814697265625	-40.00773239135742	1702.3583984375	753.6686401367188	201.8088531494141	955.492919921875	727.2002563476562	-134.2586975097656	950.9558715820312	893.8103637695312	-27.37348937988281	989.7709350585938	956.8331909179688	185.7488555908203	1003.330688476562	861.65771484375	221.0490570068359	503.0037536621094	790.7759399414062	224.1694946289062	649.350341796875	757.6022338867188	93.80779266357422	171.5040435791016	413.8860168457031	168.8088836669922	345.67041015625	585.253173828125	87.47711944580078	37.53240203857422	591.1690063476562	57.96789932250977	78.64558410644531	558.1522216796875	139.8509979248047	84.60673522949219	491.4867858886719	31.80496597290039	225.6582336425781	389.5091552734375	-53.43679428100586	531.9622192382812	981.0924072265625	-116.8394012451172	793.4081420898438	942.2542114257812	-16.77394866943359	40.74852752685547	945.6968994140625	-47.9159049987793	403.9032897949219	981.09033203125	75.34006500244141	45.65025329589844	1162.302978515625	91.27556610107422	50.65021514892578	1094.609619140625	-5.869399070739746	43.50329971313477	1095.3505859375	15.93057060241699	41.81933212280273	882.819580078125	
353	3.52	-86.19866943359375	1061.249145507812	748.9776000976562	64.12173461914062	1053.962890625	685.0054321289062	-4.824624061584473	1114.466674804688	704.9962158203125	60.40132522583008	1317.50341796875	915.958251953125	-6.458251476287842	1257.00390625	675.7155151367188	21.4000415802002	1526.593872070312	708.649658203125	52.75934219360352	1441.553955078125	868.7322387695312	-70.88313293457031	1388.219848632812	684.467529296875	110.9241256713867	1483.834716796875	669.136962890625	206.3826446533203	1493.579711914062	750.5059814453125	274.2757873535156	1367.857543945312	705.2037353515625	305.9691772460938	1152.468627929688	701.3447265625	204.3867034912109	1135.654174804688	674.3576049804688	287.6480102539062	903.4299926757812	811.159423828125	307.0479431152344	886.0464477539062	726.2501220703125	319.6595764160156	1037.455810546875	715.38720703125	280.1458740234375	720.0418701171875	848.7677612304688	317.8408813476562	798.0222778320312	762.4108276367188	307.2006225585938	810.813232421875	831.8665161132812	-131.3897247314453	1517.464477539062	825.24560546875	-204.7207489013672	1449.937255859375	828.5623168945312	-248.5271148681641	1184.504272460938	802.0751342773438	-154.9336242675781	1152.5869140625	783.8037719726562	-197.32373046875	931.0119018554688	935.91064453125	-274.4122009277344	913.6683959960938	886.8165283203125	-263.1729431152344	1108.5693359375	820.3180541992188	-180.08349609375	746.7735595703125	960.8439331054688	-203.8947143554688	824.8944091796875	978.7598876953125	-265.01318359375	815.4850463867188	934.5604858398438	103.8609771728516	1712.665405273438	753.2457885742188	-20.61515808105469	1728.635375976562	931.6740112304688	77.23105621337891	1733.7265625	931.7109375	-40.15343856811523	1703.164794921875	759.8184204101562	203.2226715087891	955.8924560546875	733.876953125	-134.2328948974609	951.5364990234375	898.24609375	-27.69660568237305	990.2540283203125	962.0556030273438	186.0350952148438	1003.959106445312	867.9498291015625	223.1662292480469	503.5960693359375	803.5851440429688	226.1964721679688	649.7030029296875	768.3257446289062	96.08985137939453	174.8883361816406	424.4137878417969	171.1547088623047	347.2957153320312	597.0153198242188	92.32643127441406	39.35052490234375	601.2298583984375	62.18190383911133	80.65493774414062	568.5680541992188	143.7626800537109	88.76969146728516	501.627197265625	33.21857833862305	228.2435913085938	400.4175720214844	-53.91958999633789	531.8270874023438	983.0874633789062	-117.1150054931641	793.544189453125	946.0033569335938	-16.88595390319824	40.67172241210938	945.6660766601562	-48.36526870727539	403.7986450195312	982.3584594726562	75.30392456054688	45.65756988525391	1162.282470703125	91.17848968505859	50.79253005981445	1094.551635742188	-5.948189735412598	43.42318725585938	1095.357055664062	15.77228546142578	41.76511764526367	882.76806640625	
354	3.53	-85.33669281005859	1062.082275390625	753.638671875	65.49109649658203	1054.733520507812	690.5738525390625	-3.732081651687622	1115.295166015625	710.3260498046875	60.73069381713867	1318.0771484375	921.6400146484375	-5.998692512512207	1257.814697265625	681.4423828125	21.29178810119629	1527.411987304688	714.6954345703125	53.01277923583984	1442.20751953125	874.6590576171875	-70.79206085205078	1388.92431640625	690.5183715820312	110.8175354003906	1484.813720703125	675.0205688476562	206.3857879638672	1494.51513671875	756.2868041992188	274.1517333984375	1368.783203125	710.7708740234375	305.7083740234375	1153.364501953125	706.7100830078125	204.0985107421875	1136.694458007812	679.903076171875	287.4371337890625	904.1126708984375	816.0390014648438	306.6399841308594	886.895751953125	731.05224609375	319.3373107910156	1038.3125	720.5044555664062	279.8995056152344	720.5972900390625	853.3009033203125	317.5113525390625	798.8062744140625	767.0079956054688	307.049072265625	811.45556640625	836.4996948242188	-131.3010864257812	1518.03125	831.4712524414062	-204.617431640625	1450.391845703125	835.0281982421875	-248.4922637939453	1184.781494140625	809.8428344726562	-154.9312286376953	1152.751831054688	791.4381103515625	-196.6077423095703	932.4906005859375	945.8485107421875	-273.7533874511719	914.6175537109375	896.9494018554688	-262.9730529785156	1108.915771484375	828.7080688476562	-178.9572601318359	748.853759765625	972.787109375	-203.0985260009766	826.8167114257812	989.834716796875	-264.2141418457031	816.9876098632812	945.7208251953125	103.6814880371094	1713.330444335938	759.02001953125	-20.48712539672852	1729.629272460938	937.6349487304688	77.42121124267578	1734.596557617188	937.5108642578125	-40.31437301635742	1703.950439453125	765.8563232421875	204.6421813964844	956.3578491210938	740.4304809570312	-134.1998138427734	952.0907592773438	902.5078735351562	-28.07583236694336	990.71533203125	967.0972290039062	186.2957153320312	1004.568176269531	874.1317138671875	224.9994506835938	504.3467102050781	816.0859375	228.0712127685547	650.1537475585938	778.8082885742188	98.60158538818359	177.0121765136719	435.8281860351562	173.4313507080078	348.5013122558594	608.926025390625	97.19873046875	41.22945785522461	612.8848876953125	66.40533447265625	82.31407165527344	580.2843017578125	147.8439025878906	92.19950103759766	513.2456665039062	34.82234191894531	229.3489837646484	411.793701171875	-54.2973747253418	531.6875610351562	984.9527587890625	-117.3033142089844	793.6472778320312	949.6162109375	-16.91426277160645	40.58940887451172	945.6654663085938	-48.74600601196289	403.6913757324219	983.5347290039062	75.27384948730469	45.65284729003906	1162.273071289062	91.10242462158203	50.8939323425293	1094.514526367188	-6.001414775848389	43.35890197753906	1095.364624023438	15.64602088928223	41.72762680053711	882.7259521484375	
355	3.54	-84.46600341796875	1062.867065429688	758.176513671875	66.82615661621094	1055.544799804688	695.9971923828125	-2.644586801528931	1116.132568359375	715.5213623046875	61.08803558349609	1318.638671875	927.1526489257812	-5.489439964294434	1258.605834960938	686.996826171875	21.2041130065918	1528.209838867188	720.5778198242188	53.30105209350586	1442.8525390625	880.4164428710938	-70.64389801025391	1389.605102539062	696.3882446289062	110.7362365722656	1485.788696289062	680.7470703125	206.4185638427734	1495.482177734375	761.909423828125	274.0628356933594	1369.740478515625	716.173828125	305.4580688476562	1154.282592773438	711.9223022460938	203.8144073486328	1137.74853515625	685.330810546875	287.2810363769531	904.8597412109375	820.874755859375	306.2430725097656	887.776123046875	735.8104248046875	319.03076171875	1039.193237304688	725.5169677734375	279.6690368652344	721.2642211914062	857.8656005859375	317.19970703125	799.634033203125	771.596923828125	306.9589538574219	812.1793823242188	841.125732421875	-131.1982421875	1518.544677734375	837.509033203125	-204.4774780273438	1450.773071289062	841.3146362304688	-248.3796691894531	1184.988403320312	817.4639282226562	-154.8405303955078	1152.848388671875	798.9675903320312	-195.8617553710938	933.9044799804688	955.6058959960938	-273.0432434082031	915.532958984375	906.9407958984375	-262.7102966308594	1109.20654296875	836.9487915039062	-177.8453979492188	750.8714599609375	984.5435180664062	-202.3099670410156	828.7073364257812	1000.697875976562	-263.435302734375	818.4735107421875	956.704833984375	103.4889526367188	1714.025512695312	764.6925048828125	-20.3912353515625	1730.548583984375	943.5029296875	77.57108306884766	1735.42333984375	943.213134765625	-40.48738479614258	1704.727294921875	771.7772827148438	206.0422973632812	956.9022827148438	746.8353881835938	-134.1502380371094	952.60986328125	906.6077880859375	-28.49016380310059	991.1602783203125	971.9840087890625	186.5161285400391	1005.180419921875	880.1898193359375	226.5445098876953	505.2416381835938	828.2713623046875	229.7859954833984	650.693115234375	789.0379638671875	101.3647537231445	177.8140716552734	448.0884399414062	175.6713256835938	349.2375793457031	621.0079956054688	101.9340286254883	43.03905868530273	626.0962524414062	70.54589080810547	83.58102416992188	593.2625732421875	151.9991607666016	94.7637939453125	526.2930908203125	36.74129867553711	228.99169921875	423.59423828125	-54.58109283447266	531.5443115234375	986.7117309570312	-117.4140472412109	793.7250366210938	953.0884399414062	-16.82990646362305	40.48289489746094	945.7158203125	-49.06655120849609	403.5835266113281	984.638427734375	75.25041198730469	45.63726806640625	1162.273193359375	91.04685974121094	50.95640563964844	1094.498046875	-6.03429651260376	43.30796432495117	1095.37255859375	15.54891777038574	41.70592498779297	882.6932983398438	
